<svg viewBox="0 0 112 112" version="1.1" xmlns="http://www.w3.org/2000/svg">
    <path fill="currentColor" d="M71.5555556,0 C93.8924054,0 112,18.1075946 112,40.4444444 C112,62.7812943 93.8924054,80.8888889 71.5555556,80.8888889 C49.2187057,80.8888889 31.1111111,62.7812943 31.1111111,40.4444444 C31.1111111,18.1075946 49.2187057,0 71.5555556,0 Z M71.5555556,18.6666667 C59.528021,18.6666667 49.7777778,28.4169099 49.7777778,40.4444444 C49.7777778,52.471979 59.528021,62.2222222 71.5555556,62.2222222 C83.5830901,62.2222222 93.3333333,52.471979 93.3333333,40.4444444 C93.3333333,28.4169099 83.5830901,18.6666667 71.5555556,18.6666667 Z" fill-rule="nonzero"></path>
    <rect fill="currentColor" x="62.2222222" y="43.5555556" width="18.6666667" height="68.4444444"></rect>
    <path fill="currentColor" d="M24.8888889,37.3333333 C38.6346427,37.3333333 49.7777778,48.4764684 49.7777778,62.2222222 C49.7777778,75.967976 38.6346427,87.1111111 24.8888889,87.1111111 C11.1431351,87.1111111 0,75.967976 0,62.2222222 C0,48.4764684 11.1431351,37.3333333 24.8888889,37.3333333 Z M24.8888889,52.8888889 C19.7342312,52.8888889 15.5555556,57.0675646 15.5555556,62.2222222 C15.5555556,67.3768799 19.7342312,71.5555556 24.8888889,71.5555556 C30.0435466,71.5555556 34.2222222,67.3768799 34.2222222,62.2222222 C34.2222222,57.0675646 30.0435466,52.8888889 24.8888889,52.8888889 Z" fill-rule="nonzero"></path>
    <rect fill="currentColor" x="18.6666667" y="74.6666667" width="12.4444444" height="37.3333333"></rect>
</svg>