<svg xmlns="http://www.w3.org/2000/svg" viewBox="0 0 24 24" role="presentation" aria-hidden="true" focusable="false" style="height: 45px; width: 45px; display: block; fill: rgb(96, 182, 181);"><path d="m13.0429 20.4868c-.252.108-.56-.037-.56-.318l-.079-16.225c0-.327.404-.491.639-.26 1.491 1.462 4.438 2.852 6.897 3.197.161.022.288.143.316.299 1.089 6.046-2.202 11.152-7.213 13.307"></path><path d="m13.998 11.0102h-4v-2c0-1.104.896-2 2-2s2 .896 2 2zm1.5 0h-.5v-2c0-1.657-1.343-3-3-3s-3 1.343-3 3v2h-.5c-.276 0-.5.224-.5.5v5c0 .276.224.5.5.5h7c.276 0 .5-.224.5-.5v-5c0-.276-.224-.5-.5-.5z" fill="#fff"></path><path d="m12.998 10.0102h-2v-1c0-.552.448-1 1-1s1 .448 1 1zm-1-3c-1.104 0-2 .896-2 2v2h4v-2c0-1.104-.896-2-2-2zm1 6c0 .37-.201.693-.5.866v1.134c0 .276-.224.5-.5.5s-.5-.224-.5-.5v-1.134c-.299-.173-.5-.496-.5-.866 0-.552.448-1 1-1s1 .448 1 1zm3 3.5c0 .276-.224.5-.5.5h-7c-.276 0-.5-.224-.5-.5v-5c0-.276.224-.5.5-.5h.5v-2c0-1.657 1.343-3 3-3s3 1.343 3 3v2h.5c.276 0 .5.224.5.5zm0-6.415v-1.085c0-2.209-1.791-4-4-4s-4 1.791-4 4v1.085c-.583.206-1 .762-1 1.415v5c0 .828.671 1.5 1.5 1.5h7c.828 0 1.5-.672 1.5-1.5v-5c0-.653-.417-1.209-1-1.415zm-3.627 11.861c-7.206-3.07-10.097-8.274-8.751-15.741 3.612-.536 6.535-2.014 8.751-4.432 2.215 2.418 5.138 3.896 8.75 4.432 1.346 7.467-1.545 12.671-8.75 15.741zm9.684-16.294c-.042-.216-.218-.38-.436-.408-3.754-.484-6.698-2.007-8.858-4.573-.204-.242-.577-.242-.781 0-2.16 2.566-5.104 4.089-8.858 4.573-.218.028-.394.192-.436.408-1.612 8.206 1.58 14.027 9.488 17.319.126.052.267.052.392 0 7.91-3.292 11.101-9.113 9.489-17.319z" fill="#484848"></path></svg>