<svg viewBox="0 0 18 18" xmlns="http://www.w3.org/2000/svg">
    <path d="M7.75,8.25 C8.16421356,8.25 8.5,8.58578644 8.5,9 C8.5,9.41421356 8.16421356,9.75 7.75,9.75 L3.25,9.75 C2.83578644,9.75 2.5,9.41421356 2.5,9 C2.5,8.58578644 2.83578644,8.25 3.25,8.25 L7.75,8.25 Z M14.75,8.25 C15.1642136,8.25 15.5,8.58578644 15.5,9 C15.5,9.41421356 15.1642136,9.75 14.75,9.75 L10.25,9.75 C9.83578644,9.75 9.5,9.41421356 9.5,9 C9.5,8.58578644 9.83578644,8.25 10.25,8.25 L14.75,8.25 Z" class="ql-fill"></path>
</svg>