<svg width="24px" height="24px" viewBox="0 0 24 24" xmlns="http://www.w3.org/2000/svg">
        <path d="M12.0022676,22.5 C12.2922084,22.5 12.5407291,22.3964497 12.7478297,22.1893491 C13.0377706,21.8994083 13.3863899,21.5369822 13.7936877,21.102071 C14.2009856,20.6671598 14.6393485,20.17357 15.1087765,19.6213018 C15.5782045,19.0690335 16.0545359,18.4753452 16.5377706,17.8402367 C17.0210053,17.2051282 17.4766266,16.545858 17.9046345,15.862426 C18.3326424,15.1789941 18.7157785,14.4817554 19.0540428,13.7707101 C19.3923071,13.0596647 19.6546345,12.3486193 19.841025,11.637574 C20.0274155,10.9265286 20.1068041,10.239645 20.0791907,9.57692308 C20.0791907,8.67948718 19.9445753,7.82692308 19.6753445,7.01923077 C19.4061138,6.21153846 19.0229777,5.47287968 18.5259362,4.80325444 C18.0288948,4.13362919 17.4421098,3.55029586 16.7655812,3.05325444 C16.0890526,2.55621302 15.3469422,2.17307692 14.5392499,1.90384615 C13.7315575,1.63461538 12.8858968,1.5 12.0022676,1.5 C11.1186384,1.5 10.2729777,1.63461538 9.46528536,1.90384615 C8.65759305,2.17307692 7.9154826,2.55621302 7.238954,3.05325444 C6.5624254,3.55029586 5.97564039,4.13362919 5.47859897,4.80325444 C4.98155755,5.47287968 4.59842145,6.21153846 4.32919069,7.01923077 C4.05995992,7.82692308 3.92534453,8.67948718 3.92534453,9.57692308 C3.89773112,10.239645 3.97711968,10.9265286 4.16351021,11.637574 C4.34990074,12.3486193 4.61222816,13.0596647 4.95049246,13.7707101 C5.28875676,14.4817554 5.67189285,15.1789941 6.09990074,15.862426 C6.52790863,16.545858 6.98352994,17.2051282 7.46676465,17.8402367 C7.94999936,18.4753452 8.42633072,19.0690335 8.89575873,19.6213018 C9.36518674,20.17357 9.80354966,20.6671598 10.2108475,21.102071 C10.6181453,21.5369822 10.9667646,21.8994083 11.2567055,22.1893491 C11.4638061,22.3964497 11.7123268,22.5 12.0022676,22.5 Z M12.0022676,12.8284024 C11.5466463,12.8284024 11.1220901,12.7455621 10.728599,12.5798817 C10.3351078,12.4142012 9.98994019,12.1829389 9.69309601,11.8860947 C9.39625183,11.5892505 9.16153783,11.2440828 8.988954,10.8505917 C8.81637017,10.4571006 8.73007826,10.0325444 8.73007826,9.57692308 C8.73007826,9.12130178 8.81637017,8.69674556 8.988954,8.30325444 C9.16153783,7.90976331 9.39625183,7.56114398 9.69309601,7.25739645 C9.98994019,6.95364892 10.3351078,6.71893491 10.728599,6.55325444 C11.1220901,6.38757396 11.5466463,6.30473373 12.0022676,6.30473373 C12.4578889,6.30473373 12.8824451,6.38757396 13.2759362,6.55325444 C13.6694274,6.71893491 14.014595,6.95364892 14.3114392,7.25739645 C14.6082834,7.56114398 14.8429974,7.90976331 15.0155812,8.30325444 C15.188165,8.69674556 15.274457,9.12130178 15.274457,9.57692308 C15.274457,10.0325444 15.188165,10.4571006 15.0155812,10.8505917 C14.8429974,11.2440828 14.6082834,11.5892505 14.3114392,11.8860947 C14.014595,12.1829389 13.6694274,12.4142012 13.2759362,12.5798817 C12.8824451,12.7455621 12.4578889,12.8284024 12.0022676,12.8284024 Z" fill="currentColor" fill-rule="nonzero"></path>
</svg>