<svg xmlns="http://www.w3.org/2000/svg" viewBox="0 0 24 24" role="img" aria-label="Search" focusable="false" style="height: 18px; width: 18px; display: block; fill: currentcolor;"><path d="m10.7227 19.9083c-4.919-.706-8.336-5.266-7.63-10.185.704-4.919 5.264-8.336 10.184-7.631 4.919.706 8.336 5.265 7.632 10.185-.706 4.92-5.266 8.336-10.186 7.631m11.65 2.76-3.729-4.196c1.706-1.514 2.905-3.618 3.254-6.053.783-5.467-3.013-10.533-8.479-11.317-5.467-.784-10.534 3.013-11.316 8.48-.784 5.466 3.012 10.532 8.478 11.315 2.675.384 5.254-.329 7.283-1.798l3.762 4.233c.184.207.5.225.706.042.206-.184.225-.5.041-.706"></path></svg>