<svg width="24px" height="24px" viewBox="0 0 24 24" xmlns="http://www.w3.org/2000/svg">
    <path d="M12,22 C13.1111111,22 14.1639785,21.8297491 15.1586022,21.4892473 C16.1532258,21.1487455 17.0672043,20.6738351 17.9005376,20.0645161 C18.733871,19.4551971 19.4551971,18.733871 20.0645161,17.9005376 C20.6738351,17.0672043 21.1487455,16.1487455 21.4892473,15.1451613 C21.8297491,14.1415771 22,13.09319 22,12 C22,10.90681 21.8297491,9.85842294 21.4892473,8.85483871 C21.1487455,7.85125448 20.6738351,6.9327957 20.0645161,6.09946237 C19.4551971,5.26612903 18.733871,4.54480287 17.9005376,3.93548387 C17.0672043,3.32616487 16.1487455,2.85125448 15.1451613,2.51075269 C14.1415771,2.1702509 13.09319,2 12,2 C10.8888889,2 9.83602151,2.1702509 8.84139785,2.51075269 C7.84677419,2.85125448 6.9327957,3.32616487 6.09946237,3.93548387 C5.26612903,4.54480287 4.54480287,5.26612903 3.93548387,6.09946237 C3.32616487,6.9327957 2.85125448,7.85125448 2.51075269,8.85483871 C2.1702509,9.85842294 2,10.90681 2,12 C2,13.09319 2.1702509,14.1415771 2.51075269,15.1451613 C2.85125448,16.1487455 3.32616487,17.0672043 3.93548387,17.9005376 C4.54480287,18.733871 5.26612903,19.4551971 6.09946237,20.0645161 C6.9327957,20.6738351 7.85125448,21.1487455 8.85483871,21.4892473 C9.85842294,21.8297491 10.90681,22 12,22 Z M16.1666667,16.9462366 C16.0232975,16.9462366 15.8799283,16.9238351 15.7365591,16.8790323 C15.59319,16.8342294 15.4587814,16.7580645 15.3333333,16.6505376 L15.3333333,16.6505376 L11.1666667,13.344086 C10.844086,13.0752688 10.6827957,12.7437276 10.6827957,12.3494624 L10.6827957,12.3494624 L10.6827957,5.76344086 C10.6827957,5.40501792 10.812724,5.10035842 11.0725806,4.84946237 C11.3324373,4.59856631 11.6415771,4.47311828 12,4.47311828 C12.3584229,4.47311828 12.6675627,4.59856631 12.9274194,4.84946237 C13.187276,5.10035842 13.3172043,5.40501792 13.3172043,5.76344086 L13.3172043,5.76344086 L13.3172043,11.7311828 L17,14.6612903 C17.2867384,14.8942652 17.4480287,15.1854839 17.483871,15.5349462 C17.5197133,15.8844086 17.421147,16.202509 17.188172,16.4892473 C16.9193548,16.7939068 16.578853,16.9462366 16.1666667,16.9462366 Z" fill="currentColor" fill-rule="nonzero"></path>
</svg>