<svg viewBox="0 0 24 24" version="1.1" xmlns="http://www.w3.org/2000/svg">
    <path d="M10.3446912,10.0039397 C8.7396929,10.8376893 6.0236583,9.90153061 5.85940221,8.14481829 C5.69514612,6.38810597 9.67178022,8.06619968 9.67178022,5.29411765 C9.67178022,2.52203561 12.424385,0.747593597 13.3512251,4.25303552 C14.2780651,7.75847745 11.9496895,9.17019003 10.3446912,10.0039397 Z" fill="#60B6B5"></path>
    <path d="M8.98394743,0 C11.9078079,0 14.2780651,2.37025721 14.2780651,5.29411765 C14.2780651,8.21797809 11.9078079,10.5882353 8.98394743,10.5882353 C6.06008699,10.5882353 3.68982978,8.21797809 3.68982978,5.29411765 C3.68982978,2.37025721 6.06008699,0 8.98394743,0 Z M8.98394743,1.05882353 C6.64485908,1.05882353 4.74865331,2.95502929 4.74865331,5.29411765 C4.74865331,7.633206 6.64485908,9.52941176 8.98394743,9.52941176 C11.3230358,9.52941176 13.2192415,7.633206 13.2192415,5.29411765 C13.2192415,2.95502929 11.3230358,1.05882353 8.98394743,1.05882353 Z" fill="#484848" fill-rule="nonzero"></path>
    <path d="M4.82807322,21.3346713 C5.09390374,14.5233218 6.71494987,11.1176471 9.69121162,11.1176471 C11.5745399,11.1176471 15.2987397,12.9149041 16.4875378,16.1655685 C17.2800698,18.3326781 17.6078096,20.4020451 17.4707571,22.3736694 L5.82731711,22.3736694 C5.27502982,22.373674 4.82731251,21.9259567 4.82731251,21.3736694 C4.82731251,21.3606663 4.82756613,21.3476645 4.82807322,21.3346713 Z" fill="#60B6B5"></path>
    <path d="M2.79596605,14.8617056 L2.89875089,14.6950211 C1.75567277,16.4675045 1.14409555,19.022934 1.05882242,22.3870844 C1.05141351,22.6793766 0.808457797,22.9103201 0.516165637,22.9029112 C0.223873477,22.8955023 -0.00707003301,22.6525466 0.000165477705,22.3602544 C0.0838796851,19.0605137 0.676439127,16.4388718 1.77386808,14.5151134 C2.06752108,14.0108331 2.96776244,14.3050927 2.79596605,14.8617056 Z" fill="#484848" fill-rule="nonzero"></path>
    <path d="M8.98640157,10.5882353 C14.7624144,10.5882353 17.7842363,14.5972251 17.9999645,22.3589607 C18.0080879,22.6512339 17.777739,22.8947534 17.4854658,22.9028768 C17.1931926,22.9110002 16.9496731,22.6806513 16.9415497,22.3883781 C16.7401476,15.142084 14.1057324,11.6470588 8.98640157,11.6470588 C6.94366699,11.6470588 5.29804234,12.2035373 4.04622747,13.3328623 C4.04622747,13.3328623 4.04622747,13.3328623 4.04622747,13.3328623 C3.82802786,13.5297111 3.49156465,13.5124029 3.29471584,13.2942033 C3.09786704,13.0760037 3.11517528,12.7395405 3.33337488,12.5426917 C3.3340811,12.5420545 3.33478903,12.5414193 3.33549866,12.540786 C3.36393232,12.5154677 3.39309311,12.4896603 3.42300979,12.4633962 C4.8414022,11.2181747 6.69679373,10.5882353 8.98640157,10.5882353 Z" fill="#484848" fill-rule="nonzero"></path>
</svg>