<svg xmlns="http://www.w3.org/2000/svg" viewBox="0 0 487.25 175.69"><defs><style>.cls-1{fill:#575756;}.cls-2{fill:#09c;}.cls-2,.cls-3{fill-rule:evenodd;}.cls-3{fill:#069;}</style></defs><title>with-text</title><g id="Layer_2" data-name="Layer 2"><g id="Layer_2-2" data-name="Layer 2"><path class="cls-1" d="M215.71,136.94v-.16c0-16.12,12.15-29.32,29.56-29.32,10.69,0,17.09,3.56,22.36,8.75l-7.94,9.15c-4.37-4-8.83-6.4-14.5-6.4-9.56,0-16.44,7.94-16.44,17.66v.16c0,9.72,6.72,17.82,16.44,17.82,6.48,0,10.45-2.59,14.9-6.64l7.94,8c-5.83,6.24-12.31,10.13-23.24,10.13-16.69,0-29.08-12.88-29.08-29.16"/><path class="cls-1" d="M274.11,156.87l7.37-8.83c5.1,4.21,10.45,6.88,16.93,6.88,5.1,0,8.18-2,8.18-5.34v-.17c0-3.15-1.95-4.77-11.42-7.2-11.42-2.92-18.79-6.08-18.79-17.34v-.16c0-10.28,8.26-17.09,19.84-17.09a32.81,32.81,0,0,1,21.06,7.21l-6.48,9.4c-5-3.49-10-5.59-14.74-5.59s-7.29,2.18-7.29,4.94v.16c0,3.73,2.43,4.94,12.23,7.45,11.5,3,18,7.13,18,17v.16c0,11.26-8.59,17.58-20.82,17.58a36.09,36.09,0,0,1-24.05-9.07"/><path class="cls-1" d="M329.84,108.43h25.92c7.2,0,12.79,2,16.52,5.75,3.16,3.16,4.86,7.61,4.86,13v.16c0,9.15-4.94,14.91-12.15,17.58l13.85,20.25H364.26L352.11,147h-9.8v18.15H329.84ZM355,136c6.07,0,9.55-3.24,9.55-8v-.16c0-5.35-3.72-8.1-9.8-8.1H342.31V136Z"/><path class="cls-1" d="M219.38,53.79h13.16c8,0,13.05,4.44,13.05,12.59,0,7.18-5,13.16-16,13.16h-2.5V75.61h2.84c6.33,0,10.71-2.56,10.71-9,0-6.15-3-9-9.34-9h-7.18V94.07h-4.73Z"/><path class="cls-1" d="M263.06,53.79h6.33l14.53,40.28h-5l-5.3-15h-16l-5.92,15H247Zm9.23,21.48L266,57.09l-6.9,18.18Z"/><path class="cls-1" d="M342.32,53.79h6.32l14.53,40.28h-5l-5.3-15h-16l-5.92,15h-4.73Zm9.23,21.48-6.27-18.18-6.89,18.18Z"/><path class="cls-1" d="M365.22,74.19c0-12.71,7.46-21,20.62-21,7.12,0,10,1.37,11.68,2.05l-1.36,3.82A26,26,0,0,0,386,57.32c-8.38,0-15.84,4.56-15.84,16.3,0,12,7.75,17.09,17,17.09a26.3,26.3,0,0,0,6.44-.8V74.24h4.73V92.93a38.6,38.6,0,0,1-12.19,1.82c-13.27,0-20.85-8.66-20.85-20.56"/><path class="cls-1" d="M405.44,73.84c0-12.59,8.43-20.62,20.8-20.62,13,0,19.54,9,19.54,20.74,0,12.3-7.7,20.79-20.63,20.79-12.53,0-19.71-8.6-19.71-20.91m35.66.06c0-9.57-5.47-16.81-15.38-16.81-10.37,0-15.61,7.24-15.61,16.7,0,9.17,5.07,17.09,15.21,17.09,10.72,0,15.78-7.41,15.78-17"/><polygon class="cls-1" points="455.35 53.79 462.07 53.79 482.63 90.08 482.46 85.07 482.46 53.79 487.25 53.79 487.25 94.07 479.9 94.07 459.79 58.29 460.02 62.45 460.02 94.07 455.35 94.07 455.35 53.79"/><path class="cls-1" d="M291.56,53.79h13.16c8,0,13,4.44,13,12.59,0,7.18-5,13.16-16,13.16h-2.41V75.61h2.75c6.32,0,10.71-2.56,10.71-9,0-6.15-3-9-9.34-9h-7.18V94.07h-4.73Z"/><polyline class="cls-1" points="309.95 76.64 321.38 94.07 315.74 94.07 305.28 77.78"/><path class="cls-2" d="M38.28,98a112.27,112.27,0,0,1,.38-28.11c.23-2-.35-3.73-1.67-3.51-1.58.27-1.9,3.63-2.3,5.08a127.45,127.45,0,0,0-2.56,22.18c2,1.5,4.06,3,6.15,4.36"/><path class="cls-2" d="M28.82,91.06c-1.07-.88-2.1-1.77-3.08-2.68l-3.41-3.15a65.91,65.91,0,0,1,4.19-17.46A63.82,63.82,0,0,1,31.37,58c.38-.59.75-1.19,1.12-1.81l0,0C33.07,55.28,34,54,35,53.76s1.64.78,1.36,2.32a20.59,20.59,0,0,1-1.13,3.52c-.93,2.36-1.82,4.77-2.6,7.2-2.48,7.77-3.43,16.09-3.79,24.26"/><path class="cls-2" d="M46.83,103.51a220.55,220.55,0,0,1-3.32-23.46c-.19-2-2-3-2.7-1.08v0a94.12,94.12,0,0,0-.13,10.36c.16,3.62.53,7.26,1,10.88,1.76,1.13,3.5,2.22,5.19,3.27"/><path class="cls-2" d="M76.17,125.59c-11-6.73-20.68-10.45-31.54-17.16-5.86-3.62-16.11-10.2-22.52-16.12,3,23.52,22.77,35.21,38.57,43.34a38,38,0,0,1-10.16-1.74,56.88,56.88,0,0,1-13.38-6.16A56.07,56.07,0,0,1,28,120.64c-14.09-13.71-13.49-36.87-6.48-54.81a81.34,81.34,0,0,1,11.6-19.9,27.74,27.74,0,0,0,2.3-3.32c.93-2.1,1.72-3.15.25-4.5-.85-.77-2.49-1.25-4.82.32C10.29,52.23-2.52,87.25.42,111.35l0,.19a35.88,35.88,0,0,0,16.39,25.64l57.9,37.12a8.79,8.79,0,0,0,12.92-4.2c5.84-14.89,1.11-36.78-11.48-44.51"/><path class="cls-2" d="M155.58,98c2.09-1.41,4.16-2.86,6.15-4.36a128.43,128.43,0,0,0-2.57-22.18c-.4-1.45-.72-4.81-2.29-5.08-1.33-.22-1.91,1.56-1.67,3.51A112.27,112.27,0,0,1,155.58,98"/><path class="cls-2" d="M165,91.06c-.37-8.17-1.32-16.49-3.8-24.26-.78-2.43-1.67-4.84-2.6-7.2a21.33,21.33,0,0,1-1.12-3.52c-.29-1.54.3-2.59,1.35-2.32s1.92,1.52,2.47,2.36l0,0c.37.62.75,1.22,1.12,1.81a63.86,63.86,0,0,1,4.86,9.8,66.3,66.3,0,0,1,4.19,17.46l-3.41,3.15c-1,.91-2,1.8-3.08,2.68"/><path class="cls-2" d="M147,103.51c1.69-1.05,3.43-2.14,5.18-3.27.45-3.62.82-7.26,1-10.88A96.65,96.65,0,0,0,153.06,79v0c-.71-1.92-2.52-.88-2.71,1.08A220.48,220.48,0,0,1,147,103.51"/><path class="cls-2" d="M117.69,125.59c11-6.73,20.67-10.45,31.53-17.16,5.86-3.62,16.12-10.2,22.53-16.12-3,23.52-22.78,35.21-38.58,43.34a38,38,0,0,0,10.16-1.74,56.7,56.7,0,0,0,13.38-6.16,55.64,55.64,0,0,0,9.12-7.11c14.09-13.71,13.49-36.87,6.49-54.81a81.66,81.66,0,0,0-11.6-19.9,26.53,26.53,0,0,1-2.3-3.32c-.94-2.1-1.73-3.15-.25-4.5.84-.77,2.48-1.25,4.82.32,20.58,13.8,33.38,48.82,30.45,72.92l0,.19A35.88,35.88,0,0,1,177,137.18l-57.9,37.12a8.78,8.78,0,0,1-12.91-4.2c-5.85-14.89-1.12-36.78,11.48-44.51"/><path class="cls-3" d="M120.48,60.65c-1.36.89-2.72,1.92-4.14,3s-2.81,2.22-4.29,3.32-2.83,2.39-4.19,3.63-2.76,2.51-4,3.89a51,51,0,0,0-3.51,4,46.66,46.66,0,0,0-3,4,44.5,44.5,0,0,0-2.44,3.82c-.65,1.24-1.31,2.36-1.89,3.37s-.89,2-1.24,2.76q-.7,1.55-1,2.1h-.16c0-.39.07-1.19.19-2.36.09-.84.16-1.92.37-3.11s.63-2.51,1.08-3.93a25,25,0,0,1,1.82-4.52,28,28,0,0,1,2.67-4.75,39.28,39.28,0,0,1,3.49-4.66,51.53,51.53,0,0,1,4.17-4.33c1.49-1.31,3-2.6,4.61-3.77s3.2-2.25,4.82-3.16a44.42,44.42,0,0,1,4.73-2.5c1.52-.8,3-1.34,4.4-1.9A41.59,41.59,0,0,1,132.53,53s-3.39,2-8.21,5.13c-1.2.81-2.48,1.63-3.84,2.57m28.67-20.11c-16.78,5.25-60.17,4-60.39,54V104.7l3.77.49V94.71c57.18-2.09,52.92-50.47,56.62-54.17"/><path class="cls-3" d="M86.91,60.11c-.23-1.12-.46-2.34-.67-3.63s-.68-2.59-1-4-.75-2.79-1.06-4.24a28.57,28.57,0,0,0-1.17-4.33c-.44-1.41-.91-2.83-1.36-4.24-.23-.7-.39-1.43-.65-2.08s-.56-1.31-.84-1.94c-.56-1.29-1-2.55-1.52-3.75-.66-1.1-1.2-2.18-1.74-3.18a17.37,17.37,0,0,0-1.61-2.6A14.11,14.11,0,0,0,74,24.21c-.42-.49-.73-1-1-1.22l-.4-.4a9.4,9.4,0,0,1,1.9,1.06,11.11,11.11,0,0,1,2,1.54,13.38,13.38,0,0,1,2.29,2.29c.75.94,1.57,1.95,2.41,3.05s1.4,2.41,2.11,3.72a21.89,21.89,0,0,1,1.92,4.16c.49,1.48,1,3,1.54,4.45a28.4,28.4,0,0,1,1.1,4.57c.3,1.52.52,3,.77,4.47A23.9,23.9,0,0,1,89,56.09c.07,1.33.07,2.59,0,3.79,0,1.54,0,2.9-.07,4.07,16.26-37.61-13.76-48.47-23.17-53.51,0,0-11.75,42.74,22,53.77-.28-1.15-.61-2.53-.92-4.1"/><path class="cls-3" d="M104.71,41.81c.54-1,1.11-2.12,1.67-3.29s1.38-2.31,2-3.56,1.5-2.46,2.19-3.77a27.44,27.44,0,0,1,2.34-3.83l2.48-3.69c.42-.61.78-1.26,1.21-1.82L118,20.22c.9-1.08,1.71-2.16,2.51-3.17s1.75-1.76,2.55-2.58a18.75,18.75,0,0,1,2.28-2A13.57,13.57,0,0,1,127.19,11c.54-.35,1-.72,1.3-.89l.5-.27a9.94,9.94,0,0,0-2.12.48,10.45,10.45,0,0,0-2.32.94,13.22,13.22,0,0,0-2.84,1.56c-1,.69-2,1.43-3.17,2.25s-2,1.92-3.06,3a20.83,20.83,0,0,0-3,3.46c-.89,1.28-1.81,2.55-2.73,3.84a29.56,29.56,0,0,0-2.33,4.08c-.71,1.37-1.33,2.75-2,4.07a25.61,25.61,0,0,0-1.62,3.9c-.43,1.26-.79,2.47-1.1,3.62-.45,1.48-.79,2.8-1.07,3.93C96.52,4.26,128.39,2.21,138.82,0c0,0-.64,44.32-36.13,45.49.59-1,1.29-2.26,2-3.68"/><path class="cls-3" d="M83.17,91.85c-.56-.77-1.17-1.64-1.76-2.55s-1.4-1.78-2.1-2.76-1.52-1.9-2.23-2.91a23.72,23.72,0,0,0-2.38-2.94c-.82-.94-1.67-1.88-2.48-2.81-.43-.45-.78-1-1.22-1.38s-.87-.82-1.31-1.22c-.87-.8-1.66-1.62-2.44-2.37S65.59,71.65,64.84,71a18.24,18.24,0,0,0-2.13-1.47,11.5,11.5,0,0,0-1.73-1c-.49-.23-.89-.49-1.17-.61a3.06,3.06,0,0,1-.44-.16,7.85,7.85,0,0,1,1.8.16,9.13,9.13,0,0,1,2.06.52,12.75,12.75,0,0,1,2.55,1q1.34.68,2.88,1.53c.93.65,1.89,1.38,2.88,2.17a16.15,16.15,0,0,1,2.88,2.55c.91,1,1.8,2,2.71,2.91a25.35,25.35,0,0,1,2.41,3.13c.75,1.08,1.41,2.18,2.11,3.21A19.65,19.65,0,0,1,83.43,88c.49,1,.93,2,1.33,2.9.52,1.19,1,2.27,1.31,3.16-.21-34.53-27.06-32.72-36-33.4,0,0,5.43,37,35.23,34-.61-.78-1.34-1.74-2.11-2.86"/></g></g></svg>